<svg width="20" height="20" viewBox="0 0 20 20" fill="none" xmlns="http://www.w3.org/2000/svg">
<path d="M10.0086 5.89784C7.76628 5.89784 5.91968 7.74298 5.91968 9.98351C5.91968 12.257 7.76628 14.0692 10.0086 14.0692C12.2509 14.0692 14.0975 12.257 14.0975 9.98351C14.0975 7.74298 12.2509 5.89784 10.0086 5.89784ZM10.0086 12.6194C8.55768 12.6194 7.40356 11.4333 7.40356 10.0165C7.40356 8.5667 8.55768 7.41349 10.0086 7.41349C11.4595 7.41349 12.6136 8.56671 12.6136 9.98351C12.6136 11.4333 11.4265 12.6194 10.0086 12.6194Z" fill="#FEFBF6"/>
<path d="M19.4394 11.9934L17.5928 10.972C17.6588 10.6096 17.6917 10.2471 17.6917 9.88468C17.6917 9.48929 17.6588 9.12685 17.6258 8.76441L19.5054 7.71005C19.9341 7.47941 20.0989 6.95222 19.9011 6.49094L17.9885 3.26194C17.7577 2.86656 17.2301 2.70181 16.8014 2.86656L14.8229 3.95387C14.724 3.88797 14.6251 3.78913 14.5591 3.72323C14.1964 3.42669 13.8666 3.13015 13.339 2.86656C13.3061 2.86656 13.2731 2.83361 13.2731 2.76771V1.58155C13.2731 0.724877 12.5806 0 11.6903 0H8.29386C7.4365 0 6.71105 0.724877 6.71105 1.58155V2.86656C6.71105 2.89951 6.67808 2.93245 6.6451 2.9654C6.15048 3.19605 5.78775 3.52554 5.39205 3.82208C5.3261 3.88797 5.22718 3.95387 5.16123 4.01977L3.41355 3.0313C2.75405 2.66886 2.19347 2.89951 1.96264 3.29489L0.149017 6.42504C0.0500915 6.68863 0.0171165 6.95222 0.0830666 7.21582C0.149017 7.47941 0.313892 7.6771 0.544717 7.8089L2.39132 8.79736C2.32537 9.12685 2.32537 9.48929 2.32537 9.91763C2.32537 10.2801 2.35835 10.6425 2.39132 11.0049L0.478767 12.0593C0.0500916 12.29 -0.114784 12.8171 0.0830666 13.2784L1.99562 16.5074C2.22645 16.9028 2.72107 17.0675 3.18272 16.9028L5.16123 15.8155C5.26015 15.8814 5.3261 15.9473 5.42503 16.0461C5.78775 16.3756 6.15048 16.6722 6.67808 16.9028C6.71105 16.9028 6.74403 16.9357 6.74403 17.0016V18.4185C6.74403 19.2751 7.4365 20 8.32683 20H11.6903C12.5476 20 13.2731 19.2751 13.2731 18.4185V16.9028C13.2731 16.8699 13.3061 16.8369 13.339 16.804C13.8337 16.5733 14.1634 16.2768 14.5591 15.9473C14.658 15.8814 14.724 15.8155 14.8229 15.7166L16.5706 16.7051C17.2301 17.0675 17.7577 16.8369 18.0215 16.4415L19.8681 13.3114C20 13.0807 20.033 12.8171 19.967 12.5865C19.9011 12.3558 19.6703 12.1252 19.4394 11.9934ZM16.9333 15.2554L15.3505 14.3657C14.8889 14.1021 14.3613 14.168 13.9656 14.4975C13.8007 14.6293 13.6688 14.7282 13.5369 14.86C13.2071 15.1565 12.9763 15.3542 12.6466 15.486C12.119 15.7496 11.7562 16.3097 11.7562 16.9028V18.3526C11.7562 18.4185 11.7233 18.4514 11.6573 18.4514H8.29386C8.22791 18.4514 8.19493 18.4185 8.19493 18.3526V16.9357C8.19493 16.3427 7.8322 15.7825 7.3046 15.5189C6.97485 15.3542 6.71105 15.1565 6.3813 14.86C6.2494 14.7611 6.1175 14.6293 5.95263 14.5305C5.7218 14.3657 5.458 14.2669 5.16123 14.2669C4.96337 14.2669 4.73255 14.3328 4.5347 14.4316L2.9519 15.3213L1.63289 13.0807L3.18272 12.2241C3.64437 11.9605 3.90817 11.4662 3.84222 10.9061C3.80925 10.5766 3.77627 10.2471 3.77627 9.91763C3.77627 9.55519 3.80925 9.2257 3.84222 8.96211C3.94115 8.40198 3.67735 7.84185 3.18272 7.57825L1.73182 6.75453L3.01785 4.54695L4.60065 5.43657C5.0623 5.70016 5.5899 5.63427 5.9856 5.30478C6.1175 5.20593 6.2494 5.07413 6.3813 4.97529C6.71105 4.67875 6.97485 4.48105 7.3046 4.31631C7.86518 4.05272 8.19493 3.49259 8.19493 2.89951V1.6145C8.19493 1.5486 8.22791 1.51565 8.29386 1.51565H11.6573C11.7233 1.51565 11.7562 1.5486 11.7562 1.6145V2.86656C11.7562 3.45964 12.119 4.01977 12.6466 4.28336C12.9763 4.44811 13.2071 4.6458 13.5369 4.90939C13.6688 5.04119 13.8007 5.14003 13.9656 5.27183C14.3613 5.60132 14.9218 5.63427 15.3505 5.37068L16.9333 4.48105L18.2523 6.72158L16.7355 7.57825C16.2738 7.84185 16.01 8.40198 16.1089 8.96211C16.1419 9.25865 16.1749 9.58814 16.1749 9.91763C16.1749 10.2471 16.1419 10.5766 16.076 10.9061C15.977 11.4662 16.2408 11.9934 16.7355 12.257L18.2193 13.0807L16.9333 15.2554Z" fill="#FEFBF6"/>
</svg>
