<svg width="20" height="17" viewBox="0 0 20 17" fill="none" xmlns="http://www.w3.org/2000/svg">
<path d="M10 17C9.56954 17 9.13907 16.8426 8.80795 16.5593C8.04636 15.9296 7.35099 15.363 6.72185 14.8593C4.83444 13.3167 3.17881 12.0259 2.01987 10.7037C0.662252 9.12963 0 7.65 0 5.98148C0 4.37593 0.596026 2.86481 1.65563 1.76296C2.74834 0.62963 4.27152 0 5.89404 0C7.11921 0 8.27815 0.377778 9.27152 1.10185C9.53642 1.29074 9.76821 1.47963 10 1.73148C10.2318 1.51111 10.4636 1.29074 10.7285 1.10185C11.7219 0.377778 12.8477 0 14.106 0C15.7616 0 17.2517 0.62963 18.3444 1.76296C19.4371 2.86481 20 4.37593 20 5.98148C20 7.65 19.3709 9.12963 17.9801 10.7037C16.8212 12.0259 15.1656 13.3481 13.2781 14.8593C12.649 15.363 11.9205 15.9611 11.1589 16.5593C10.8609 16.8426 10.4305 17 10 17ZM5.89404 1.41667C4.66887 1.41667 3.54305 1.88889 2.71523 2.70741C1.92053 3.55741 1.49007 4.72222 1.49007 5.98148C1.49007 7.27222 2.01987 8.5 3.1457 9.79074C4.23841 11.0185 5.82781 12.3093 7.64901 13.7889C8.27815 14.2926 9.00662 14.8907 9.76821 15.5204C9.90066 15.6148 10.0993 15.6148 10.2318 15.5204C10.9934 14.8907 11.7219 14.3241 12.351 13.7889C14.2053 12.2778 15.7947 11.0185 16.8543 9.79074C17.9801 8.5 18.5099 7.27222 18.5099 5.98148C18.5099 4.72222 18.0464 3.55741 17.2517 2.73889C16.4238 1.88889 15.298 1.41667 14.106 1.41667C13.2119 1.41667 12.3841 1.7 11.6556 2.2037C11.3576 2.42407 11.0927 2.67593 10.8278 2.95926C10.6291 3.17963 10.3311 3.33704 10 3.33704C9.66887 3.33704 9.40397 3.21111 9.17219 2.95926C8.90728 2.67593 8.64238 2.42407 8.34437 2.2037C7.64901 1.7 6.82119 1.41667 5.89404 1.41667Z" fill="#FEFBF6"/>
</svg>
