<svg width="24" height="24" viewBox="0 0 24 24" fill="none" xmlns="http://www.w3.org/2000/svg">
<path d="M21.525 0H1.6875C0.75 0 0 0.75 0 1.6875V21.5625C0 22.4625 0.75 23.25 1.6875 23.25H21.45C22.3875 23.25 23.1375 22.5 23.1375 21.5625V1.65C23.2125 0.75 22.4625 0 21.525 0ZM6.86251 19.7625H3.45002V8.7H6.86251V19.7625ZM5.13752 7.1625C4.01252 7.1625 3.15 6.2625 3.15 5.175C3.15 4.0875 4.05002 3.1875 5.13752 3.1875C6.22502 3.1875 7.12502 4.0875 7.12502 5.175C7.12502 6.2625 6.30002 7.1625 5.13752 7.1625ZM19.8 19.7625H16.3875V14.4C16.3875 13.125 16.35 11.4375 14.5875 11.4375C12.7875 11.4375 12.525 12.8625 12.525 14.2875V19.7625H9.11251V8.7H12.45V10.2375H12.4875C12.975 9.3375 14.0625 8.4375 15.75 8.4375C19.2375 8.4375 19.875 10.6875 19.875 13.7625V19.7625H19.8Z" fill="#FEFBF6"/>
</svg>
