<svg width="64" height="64" viewBox="0 0 64 64" fill="none" xmlns="http://www.w3.org/2000/svg">
<path d="M2 44.6H27.3678C29.4486 44.6 31.8616 43.8512 31.7193 41.7752C31.2971 35.6147 19.7554 23.7577 14.4038 23.8862M2 44.6V12C2 6.47715 6.47715 2 12 2H17.2386C18.2076 2 19.1508 2.31201 19.9286 2.88983V2.88983C26.7319 7.94372 25.7384 18.415 18.106 22.0992L14.4038 23.8862M2 44.6C2.15348 31.8755 10.0872 23.9899 14.4038 23.8862M38.6609 2V23.8862M12.4745 44.6H28.6609C34.1838 44.6 38.6609 40.1228 38.6609 34.6V23.8862M38.6609 23.8862C49.3259 6.37725 49.4529 30.4 48.1832 44.6" stroke="#FEFBF6" stroke-width="3"/>
<path d="M61.9748 30.2C62.7342 65.4792 46.1542 64.4125 37.7692 59.4693" stroke="#FEFBF6" stroke-width="3"/>
<path d="M61.4231 44.6C55.5757 33.6678 55.8337 27.6449 56.6936 26" stroke="#FEFBF6" stroke-width="3"/>
<line x1="50.6923" y1="44.6" x2="50.6923" y2="2" stroke="#FEFBF6" stroke-width="3"/>
<path d="M35.6923 14.6C35.6923 16.662 33.8759 18.5 31.4231 18.5C28.9703 18.5 27.1538 16.662 27.1538 14.6C27.1538 12.538 28.9703 10.7 31.4231 10.7C33.8759 10.7 35.6923 12.538 35.6923 14.6Z" fill="#FEFBF6" fill-opacity="0.01" stroke="#FEFBF6" stroke-width="3"/>
<path d="M35.6923 26C35.6923 28.062 33.8759 29.9 31.4231 29.9C28.9703 29.9 27.1538 28.062 27.1538 26C27.1538 23.938 28.9703 22.1 31.4231 22.1C33.8759 22.1 35.6923 23.938 35.6923 26Z" fill="#FEFBF6" fill-opacity="0.03" stroke="#FEFBF6" stroke-width="3"/>
<line y1="-1.5" x2="21.5245" y2="-1.5" transform="matrix(0.310436 -0.950594 0.976242 0.216685 39.7054 22.4611)" stroke="#FEFBF6" stroke-width="3"/>
</svg>
