<svg width="216" height="246" viewBox="0 0 216 246" fill="none" xmlns="http://www.w3.org/2000/svg">
<path d="M2 173.82H99.3823C101.681 173.82 104.072 173.117 105.26 171.148C117.078 151.562 67.3212 89.6854 45.8269 90.2745M2 173.82V12C2 6.47715 6.47715 2 12 2H57.4463C59.8151 2 62.1071 2.84094 63.9138 4.373L90.528 26.9413C103.882 38.2654 101.759 59.4548 86.4242 67.9047L45.8269 90.2745M2 173.82C2.54229 122.498 30.5748 90.6926 45.8269 90.2745M131.535 2V90.2745M39.0101 173.82H121.535C127.058 173.82 131.535 169.343 131.535 163.82V90.2745M131.535 90.2745C169.218 19.6549 169.667 116.547 165.181 173.82" stroke="#FEFBF6" stroke-width="3"/>
<path d="M213.911 115.74C216.594 258.033 158.012 253.73 128.385 233.793" stroke="#FEFBF6" stroke-width="3"/>
<path d="M211.961 173.82C191.301 129.727 192.212 105.434 195.25 98.8" stroke="#FEFBF6" stroke-width="3"/>
<line x1="177.846" y1="173.82" x2="177.846" y2="2.00006" stroke="#FEFBF6" stroke-width="3"/>
<path d="M124.846 52.82C124.846 64.1155 116.299 73.1 105.962 73.1C95.6241 73.1 87.0771 64.1155 87.0771 52.82C87.0771 41.5246 95.6241 32.54 105.962 32.54C116.299 32.54 124.846 41.5246 124.846 52.82Z" fill="#FEFBF6" fill-opacity="0.01" stroke="#FEFBF6" stroke-width="3"/>
<path d="M124.846 98.8C124.846 110.095 116.299 119.08 105.962 119.08C95.6241 119.08 87.0771 110.095 87.0771 98.8C87.0771 87.5046 95.6241 78.52 105.962 78.52C116.299 78.52 124.846 87.5046 124.846 98.8Z" fill="#FEFBF6" fill-opacity="0.03" stroke="#FEFBF6" stroke-width="3"/>
<line y1="-1.5" x2="85.837" y2="-1.5" transform="matrix(0.275052 -0.961429 0.969369 0.245607 135.226 84.5264)" stroke="#FEFBF6" stroke-width="3"/>
</svg>
