<svg width="30" height="26" viewBox="0 0 30 26" fill="none" xmlns="http://www.w3.org/2000/svg">
<path d="M27.4257 0H16.5347C15.9406 0 15.396 0.230089 14.9505 0.575221C14.505 0.230089 13.9604 0 13.3663 0H2.47525C1.08911 0 0 1.32301 0 2.87611V21.6283C0 23.2389 1.13861 24.5044 2.47525 24.5044H13.8614V24.677C13.8614 25.3673 14.3564 26 15 26C15.5941 26 16.1386 25.4248 16.1386 24.677V24.5044H27.5248C28.9109 24.5044 30 23.1814 30 21.6283V2.87611C29.9505 1.26549 28.8119 0 27.4257 0ZM2.47525 21.9735C2.32673 21.9735 2.22772 21.8584 2.22772 21.6858V2.87611C2.22772 2.70354 2.32673 2.5885 2.47525 2.5885H13.4158C13.6634 2.5885 13.8614 2.81858 13.8614 3.1062V21.9735H2.47525ZM27.7228 21.6283C27.7228 21.8009 27.6238 21.9159 27.4752 21.9159H16.0891V3.1062C16.0891 2.81858 16.2871 2.5885 16.5347 2.5885H27.4752C27.6238 2.5885 27.7228 2.70354 27.7228 2.87611V21.6283Z" fill="#FEFBF6"/>
<path d="M6.13861 8.64602H9.80198C10.396 8.64602 10.9406 8.0708 10.9406 7.32301C10.9406 6.57522 10.4455 6 9.80198 6H6.13861C5.54455 6 5 6.57522 5 7.32301C5 8.0708 5.49505 8.64602 6.13861 8.64602Z" fill="#FEFBF6"/>
<path d="M20.1386 8.64602H23.802C24.396 8.64602 24.9406 8.0708 24.9406 7.32301C24.9406 6.57522 24.4455 6 23.802 6H20.1386C19.5446 6 19 6.57522 19 7.32301C19 8.0708 19.495 8.64602 20.1386 8.64602Z" fill="#FEFBF6"/>
<path d="M9.80198 11H6.13861C5.54455 11 5 11.5752 5 12.323C5 13.0708 5.49505 13.646 6.13861 13.646H9.80198C10.396 13.646 10.9406 13.0708 10.9406 12.323C10.9406 11.5752 10.4455 11 9.80198 11Z" fill="#FEFBF6"/>
<path d="M23.802 11H20.1386C19.5446 11 19 11.5752 19 12.323C19 13.0708 19.495 13.646 20.1386 13.646H23.802C24.396 13.646 24.9406 13.0708 24.9406 12.323C24.9406 11.5752 24.4455 11 23.802 11Z" fill="#FEFBF6"/>
<path d="M9.80198 16H6.13861C5.54455 16 5 16.5752 5 17.323C5 18.0708 5.49505 18.646 6.13861 18.646H9.80198C10.396 18.646 10.9406 18.0708 10.9406 17.323C10.9406 16.5752 10.4455 16 9.80198 16Z" fill="#FEFBF6"/>
<path d="M23.802 16H20.1386C19.5446 16 19 16.5752 19 17.323C19 18.0708 19.495 18.646 20.1386 18.646H23.802C24.396 18.646 24.9406 18.0708 24.9406 17.323C24.9406 16.5752 24.4455 16 23.802 16Z" fill="#FEFBF6"/>
</svg>
