<svg width="30" height="30" viewBox="0 0 30 30" fill="none" xmlns="http://www.w3.org/2000/svg">
<path d="M30 5.0184C30 4.62187 29.851 4.22534 29.553 3.92794C28.957 3.33314 28.3609 2.73834 27.8146 2.14354C27.2682 1.5983 26.7715 1.05307 26.2252 0.557405C25.9768 0.260005 25.6788 0.0617379 25.2815 0.0121713C24.8344 -0.0373954 24.4371 0.0617379 24.0894 0.359138L20.7119 3.72967H3.12914C1.4404 3.72967 0 5.11754 0 6.85237V26.8773C0 28.5626 1.39073 30 3.12914 30H23.245C24.9338 30 26.3742 28.6121 26.3742 26.8773V9.28114L29.6026 6.0593C29.851 5.7619 30 5.41494 30 5.0184ZM15.3974 16.964C15.3477 17.0135 15.3477 17.0135 15.298 17.0135L11.7219 18.2031L12.9139 14.6343C12.9139 14.5848 12.9636 14.5848 12.9636 14.5352L21.904 5.6132L24.3874 8.04197L15.3974 16.964ZM24.0894 26.8773C24.0894 27.373 23.6921 27.7695 23.1954 27.7695H3.12914C2.63245 27.7695 2.2351 27.373 2.2351 26.8773V6.8028C2.2351 6.30714 2.63245 5.9106 3.12914 5.9106H18.4272L11.3742 12.9986C11.1258 13.2465 10.8775 13.5934 10.7781 13.99L8.9404 19.5414C8.79139 19.938 8.89073 20.2849 9.0894 20.6319C9.23841 20.8302 9.53642 21.1276 10.0828 21.1276H10.2815L15.9934 19.244C16.3411 19.1449 16.6887 18.8971 16.9371 18.6492L24.0894 11.5116V26.8773ZM25.9272 6.5054L23.4437 4.07664L24.9834 2.54007C25.3808 2.9366 27.0199 4.5723 27.4172 5.0184L25.9272 6.5054Z" fill="#FEFBF6"/>
</svg>
