<svg width="20" height="17" viewBox="0 0 20 17" fill="none" xmlns="http://www.w3.org/2000/svg">
<path d="M10.0097 10.1188C12.7516 10.1188 14.9648 7.85894 14.9648 5.05941C14.9648 2.25987 12.7516 0 10.0097 0C7.26791 0 5.05463 2.25987 5.05463 5.05941C5.05463 7.85894 7.26791 10.1188 10.0097 10.1188ZM10.0097 1.51782C11.9257 1.51782 13.4783 3.1031 13.4783 5.05941C13.4783 7.01571 11.9257 8.60099 10.0097 8.60099C8.09376 8.60099 6.54116 7.01571 6.54116 5.05941C6.54116 3.1031 8.09376 1.51782 10.0097 1.51782Z" fill="#FEFBF6"/>
<path d="M19.7547 15.6505C17.0459 13.3231 13.6104 12.0414 10.0097 12.0414C6.40899 12.0414 2.97345 13.3231 0.264659 15.6505C-0.0326476 15.9203 -0.0987157 16.3925 0.165557 16.7298C0.429829 17.0334 0.892305 17.1008 1.22265 16.831C3.66716 14.706 6.77236 13.5592 10.0097 13.5592C13.247 13.5592 16.3522 14.706 18.7637 16.7973C18.8959 16.9322 19.061 16.9659 19.2592 16.9659C19.4574 16.9659 19.6887 16.8647 19.8208 16.6961C20.0851 16.3925 20.052 15.9203 19.7547 15.6505Z" fill="#FEFBF6"/>
</svg>
