<svg width="30" height="28" viewBox="0 0 30 28" fill="none" xmlns="http://www.w3.org/2000/svg">
<path d="M15.0146 16.6663C19.1273 16.6663 22.4472 12.9441 22.4472 8.33314C22.4472 3.72214 19.1273 0 15.0146 0C10.9018 0 7.58191 3.72214 7.58191 8.33314C7.58191 12.9441 10.9018 16.6663 15.0146 16.6663ZM15.0146 2.49994C17.8885 2.49994 20.2174 5.11099 20.2174 8.33314C20.2174 11.5553 17.8885 14.1663 15.0146 14.1663C12.1406 14.1663 9.81171 11.5553 9.81171 8.33314C9.81171 5.11099 12.1406 2.49994 15.0146 2.49994Z" fill="#FEFBF6"/>
<path d="M29.6321 25.7772C25.5689 21.9439 20.4156 19.8329 15.0145 19.8329C9.61348 19.8329 4.46017 21.9439 0.396988 25.7772C-0.0489714 26.2216 -0.148073 26.9994 0.248335 27.5549C0.644743 28.0549 1.33846 28.166 1.83397 27.7216C5.50075 24.2217 10.1585 22.3328 15.0145 22.3328C19.8706 22.3328 24.5283 24.2217 28.1456 27.666C28.3438 27.8883 28.5915 27.9438 28.8888 27.9438C29.1861 27.9438 29.533 27.7771 29.7312 27.4994C30.1276 26.9994 30.0781 26.2216 29.6321 25.7772Z" fill="#FEFBF6"/>
</svg>
