<svg width="20" height="19" viewBox="0 0 20 19" fill="none" xmlns="http://www.w3.org/2000/svg">
<path d="M13.7061 6.2247C12.6198 5.18182 11.214 4.66038 9.6805 4.75815C6.90095 4.9211 4.69647 7.26758 4.66452 10.0703C4.63258 11.8628 5.46325 13.4923 6.83705 14.5026V16.8491C6.83705 18.0549 7.79551 19 8.97762 19H10.9585C12.1406 19 13.099 18.0223 13.099 16.8491V14.5352C14.5048 13.5249 15.3355 11.8954 15.3355 10.1355C15.3674 8.66895 14.7604 7.26758 13.7061 6.2247ZM10.9904 17.566H9.00957C8.62619 17.566 8.3067 17.2401 8.3067 16.8816V14.8937H11.7252V16.8816C11.6933 17.2401 11.3738 17.566 10.9904 17.566ZM12.2045 13.3945H10.7029V12.5146C10.7029 12.1235 10.3834 11.765 9.96804 11.765C9.58465 11.765 9.23321 12.0909 9.23321 12.5146V13.3945H7.76357C6.6773 12.6449 6.03833 11.4391 6.07028 10.0703C6.10222 8.01715 7.69967 6.32247 9.7444 6.19211C9.80829 6.19211 9.90414 6.19211 9.96804 6.19211C11.0224 6.19211 11.9489 6.5506 12.6837 7.26758C13.4505 8.01715 13.8978 9.06003 13.8978 10.1355C13.9297 11.4717 13.2907 12.6775 12.2045 13.3945Z" fill="#FEFBF6"/>
<path d="M10 3.35678C10.3834 3.35678 10.7348 3.03087 10.7348 2.6072V0.749571C10.7348 0.358491 10.4154 0 10 0C9.61664 0 9.2652 0.3259 9.2652 0.749571V2.63979C9.29715 3.03087 9.61664 3.35678 10 3.35678Z" fill="#FEFBF6"/>
<path d="M18.3067 4.43225C18.5942 4.13894 18.5942 3.68268 18.3067 3.38937C18.0191 3.09606 17.5719 3.09606 17.2843 3.38937L16.0064 4.66038C15.7188 4.95369 15.7188 5.40995 16.0064 5.70326C16.1342 5.83362 16.3259 5.93139 16.5175 5.93139C16.7092 5.93139 16.869 5.86621 17.0287 5.73585L18.3067 4.43225Z" fill="#FEFBF6"/>
<path d="M2.71568 3.38937C2.42814 3.09606 1.98086 3.09606 1.69332 3.38937C1.40578 3.68268 1.40578 4.13894 1.69332 4.43225L2.93932 5.70326C3.06712 5.83362 3.25881 5.93139 3.4505 5.93139C3.6422 5.93139 3.83389 5.86621 3.96169 5.70326C4.24923 5.40995 4.24923 4.95369 3.96169 4.66038L2.71568 3.38937Z" fill="#FEFBF6"/>
<path d="M2.58786 10.7873H0.734824C0.351438 10.7873 0 11.1132 0 11.5369C0 11.9606 0.319489 12.2865 0.734824 12.2865H2.58786C2.97125 12.2865 3.32268 11.9606 3.32268 11.5369C3.32268 11.1132 2.97125 10.7873 2.58786 10.7873Z" fill="#FEFBF6"/>
<path d="M19.2652 10.7873H17.4121C17.0287 10.7873 16.6773 11.1132 16.6773 11.5369C16.6773 11.9606 16.9968 12.2865 17.4121 12.2865H19.2652C19.6486 12.2865 20 11.9606 20 11.5369C20 11.1132 19.6486 10.7873 19.2652 10.7873Z" fill="#FEFBF6"/>
</svg>
