<svg width="17" height="23" viewBox="0 0 17 23" fill="none" xmlns="http://www.w3.org/2000/svg">
<path d="M13.1625 0H8.925C7.95 0 7.125 0.825 7.125 1.8V4.3875C7.125 4.8375 7.5 5.2125 7.95 5.2125C8.4 5.2125 8.8125 4.8375 8.8125 4.3875V1.7625C8.8125 1.6875 8.85 1.65 8.925 1.65H13.1625C14.0625 1.65 14.775 2.3625 14.775 3.2625V19.35C14.775 20.25 14.0625 20.9625 13.1625 20.9625H8.925C8.85 20.9625 8.8125 20.925 8.8125 20.85V18.2625C8.8125 17.8125 8.4375 17.4375 7.95 17.4375C7.4625 17.4375 7.125 17.8125 7.125 18.2625V20.85C7.125 21.825 7.95 22.65 8.925 22.65H13.1625C15 22.65 16.4625 21.15 16.4625 19.35V3.3C16.4625 1.4625 14.9625 0 13.1625 0Z" fill="#FEFBF6"/>
<path d="M10.125 10.725L6.375 6.9C6.0375 6.5625 5.5125 6.5625 5.175 6.9C4.8375 7.2375 4.8375 7.7625 5.175 8.1L7.5 10.4625H0.825C0.375 10.4625 0 10.8375 0 11.2875C0 11.7375 0.375 12.1125 0.825 12.1125H7.5375L5.175 14.5125C4.8375 14.85 4.8375 15.375 5.175 15.7125C5.325 15.8625 5.55 15.9375 5.775 15.9375C6 15.9375 6.225 15.8625 6.375 15.675L10.125 11.85C10.4625 11.5875 10.4625 11.0625 10.125 10.725Z" fill="#FEFBF6"/>
</svg>
