<svg width="15" height="18" viewBox="0 0 15 18" fill="none" xmlns="http://www.w3.org/2000/svg">
<path d="M1.79551 18C1.53367 18 1.30923 17.9702 1.04738 17.881C0.411471 17.643 0 17.1372 0 16.5719V1.90413C0 0.86281 1.08479 0 2.39401 0H12.606C13.9152 0 15 0.86281 15 1.90413V16.5124C15 17.0777 14.5885 17.5835 13.9526 17.8215C13.3167 18.0595 12.5686 17.9702 12.0075 17.5835L7.89277 14.7273C7.63092 14.5785 7.33167 14.6083 7.06983 14.7273L2.95511 17.6132C2.61845 17.8512 2.20698 18 1.79551 18ZM2.35661 1.33884C1.94514 1.33884 1.64589 1.60661 1.64589 1.90413V16.5719C1.64589 16.6017 1.64589 16.6314 1.7207 16.6612C1.79551 16.6909 1.83292 16.6612 1.83292 16.6612L6.02244 13.7157C6.88279 13.1802 8.0798 13.1802 8.94015 13.7157L9.01496 13.7752L13.0923 16.6314C13.0923 16.6314 13.1297 16.6612 13.2045 16.6314C13.2793 16.6017 13.2793 16.5719 13.2793 16.5421V1.90413C13.2793 1.57686 12.9426 1.33884 12.5686 1.33884H2.35661Z" fill="#FEFBF6"/>
</svg>
